# Blender v3.1.2 OBJ File: 'car.blend'
# www.blender.org
mtllib alberi.mtl
o Cubo.012_Cubo.013
v -15.405787 -0.967025 -13.052678
v -15.405787 -0.500729 -13.052679
v -15.405787 -0.967025 -13.518974
v -15.405787 -0.500729 -13.518974
v -14.939491 -0.967025 -13.052678
v -14.939491 -0.500729 -13.052679
v -14.939491 -0.967025 -13.518974
v -14.939491 -0.500729 -13.518974
v -17.301273 -0.967025 -13.052678
v -17.301273 -0.500729 -13.052679
v -17.301273 -0.967025 -13.518974
v -17.301273 -0.500729 -13.518974
v -16.834976 -0.967025 -13.052678
v -16.834976 -0.500729 -13.052679
v -16.834976 -0.967025 -13.518974
v -16.834976 -0.500729 -13.518974
v -19.158850 -0.967025 -13.052678
v -19.158850 -0.500729 -13.052679
v -19.158850 -0.967025 -13.518974
v -19.158850 -0.500729 -13.518974
v -18.692553 -0.967025 -13.052678
v -18.692553 -0.500729 -13.052679
v -18.692553 -0.967025 -13.518974
v -18.692553 -0.500729 -13.518974
v -15.657383 -0.453866 -12.801082
v -15.657383 -0.453866 -13.770573
v -14.687894 -0.453866 -13.770573
v -14.687894 -0.453866 -12.801082
v -17.552870 -0.453866 -12.801082
v -17.552870 -0.453866 -13.770573
v -16.583380 -0.453866 -13.770573
v -16.583380 -0.453866 -12.801082
v -19.410446 -0.453866 -12.801082
v -19.410446 -0.453866 -13.770573
v -18.440956 -0.453866 -13.770573
v -18.440956 -0.453866 -12.801082
v -15.657383 -0.453866 -12.801082
v -15.657383 -0.453866 -13.770573
v -14.687894 -0.453866 -13.770573
v -14.687894 -0.453866 -12.801082
v -17.552870 -0.453866 -12.801082
v -17.552870 -0.453866 -13.770573
v -16.583380 -0.453866 -13.770573
v -16.583380 -0.453866 -12.801082
v -19.410446 -0.453866 -12.801082
v -19.410446 -0.453866 -13.770573
v -18.440956 -0.453866 -13.770573
v -18.440956 -0.453866 -12.801082
v -15.657383 2.080871 -12.801082
v -15.657383 2.080871 -13.770573
v -14.687894 2.080871 -13.770573
v -14.687894 2.080871 -12.801082
v -17.552870 2.080871 -12.801082
v -17.552870 2.080871 -13.770573
v -16.583380 2.080871 -13.770573
v -16.583380 2.080871 -12.801082
v -19.410446 2.080871 -12.801082
v -19.410446 2.080871 -13.770573
v -18.440956 2.080871 -13.770573
v -18.440956 2.080871 -12.801082
vt 0.375000 0.500000
vt 0.125000 0.750000
vt 0.125000 0.500000
vt 0.625000 0.250000
vt 0.625000 0.000000
vt 0.625000 0.250000
vt 0.375000 0.500000
vt 0.125000 0.750000
vt 0.125000 0.500000
vt 0.625000 0.250000
vt 0.625000 0.000000
vt 0.625000 0.250000
vt 0.375000 0.500000
vt 0.125000 0.750000
vt 0.125000 0.500000
vt 0.625000 0.500000
vt 0.625000 0.500000
vt 0.625000 1.000000
vt 0.625000 0.750000
vt 0.625000 1.000000
vt 0.625000 0.000000
vt 0.625000 0.250000
vt 0.625000 0.750000
vt 0.625000 0.500000
vt 0.625000 0.750000
vt 0.625000 0.750000
vt 0.625000 1.000000
vt 0.625000 0.500000
vt 0.625000 0.750000
vt 0.625000 0.250000
vt 0.625000 0.500000
vt 0.625000 0.000000
vt 0.625000 0.250000
vt 0.625000 0.750000
vt 0.625000 1.000000
vt 0.625000 1.000000
vt 0.625000 0.750000
vt 0.625000 1.000000
vt 0.625000 1.000000
vt 0.625000 0.500000
vt 0.625000 0.750000
vt 0.625000 0.500000
vt 0.625000 0.000000
vt 0.625000 0.250000
vt 0.625000 0.750000
vt 0.625000 0.750000
vt 0.625000 1.000000
vt 0.625000 1.000000
vt 0.625000 0.000000
vt 0.625000 0.250000
vt 0.625000 1.000000
vt 0.625000 0.500000
vt 0.625000 0.000000
vt 0.625000 0.250000
vt 0.625000 0.500000
vt 0.875000 0.500000
vt 0.625000 0.750000
vt 0.625000 0.500000
vt 0.875000 0.500000
vt 0.625000 0.750000
vt 0.625000 0.500000
vt 0.875000 0.500000
vt 0.625000 0.500000
vt 0.625000 1.000000
vt 0.625000 0.000000
vt 0.625000 0.250000
vt 0.625000 1.000000
vt 0.625000 0.000000
vt 0.625000 0.250000
vt 0.375000 0.750000
vt 0.625000 0.000000
vt 0.375000 0.750000
vt 0.625000 0.000000
vt 0.375000 0.750000
vt 0.625000 0.000000
vt 0.875000 0.750000
vt 0.875000 0.750000
vt 0.875000 0.750000
vt 0.375000 0.250000
vt 0.375000 0.000000
vt 0.375000 1.000000
vt 0.375000 0.250000
vt 0.375000 0.000000
vt 0.375000 1.000000
vt 0.375000 0.250000
vt 0.375000 0.000000
vt 0.375000 1.000000
vn 0.0000 -1.0000 0.0000
vn -0.1831 -0.9831 0.0000
vn 0.0000 -0.9831 -0.1831
vn 0.0000 0.0000 1.0000
vn 0.0000 -0.9831 0.1831
vn 0.1831 -0.9831 0.0000
vn -1.0000 0.0000 0.0000
vn 1.0000 0.0000 0.0000
vn 0.0000 1.0000 0.0000
vn 0.0000 0.0000 -1.0000
usemtl alberi
s off
f 7/1/1 1/2/1 3/3/1
f 20/4/2 33/5/2 34/6/2
f 15/7/1 9/8/1 11/9/1
f 4/10/2 25/11/2 26/12/2
f 23/13/1 17/14/1 19/15/1
f 20/4/3 35/16/3 24/17/3
f 29/18/4 44/19/4 41/20/4
f 26/12/4 37/21/4 38/22/4
f 36/23/4 47/24/4 48/25/4
f 14/26/5 29/18/5 10/27/5
f 16/28/6 32/29/6 14/26/6
f 12/30/3 31/31/3 16/28/3
f 12/30/2 29/32/2 30/33/2
f 6/34/5 25/35/5 2/36/5
f 22/37/5 33/38/5 18/39/5
f 8/40/6 28/41/6 6/34/6
f 24/17/6 36/23/6 22/37/6
f 4/10/3 27/42/3 8/40/3
f 38/22/7 49/43/7 50/44/7
f 47/24/8 60/45/8 48/25/8
f 40/46/4 49/47/4 37/48/4
f 30/33/4 41/49/4 42/50/4
f 33/38/4 48/25/4 45/51/4
f 27/42/4 38/22/4 39/52/4
f 34/6/4 45/53/4 46/54/4
f 31/31/4 42/50/4 43/55/4
f 28/41/4 39/52/4 40/46/4
f 35/16/4 46/54/4 47/24/4
f 32/29/4 43/55/4 44/19/4
f 25/35/4 40/46/4 37/48/4
f 50/56/9 52/57/9 51/58/9
f 54/59/9 56/60/9 55/61/9
f 58/62/9 60/45/9 59/63/9
f 44/19/4 53/64/4 41/20/4
f 42/50/7 53/65/7 54/66/7
f 48/25/4 57/67/4 45/51/4
f 38/22/10 51/58/10 39/52/10
f 46/54/7 57/68/7 58/69/7
f 42/50/10 55/61/10 43/55/10
f 39/52/8 52/57/8 40/46/8
f 46/54/10 59/63/10 47/24/10
f 43/55/8 56/60/8 44/19/8
f 7/1/1 5/70/1 1/2/1
f 20/4/2 18/71/2 33/5/2
f 15/7/1 13/72/1 9/8/1
f 4/10/2 2/73/2 25/11/2
f 23/13/1 21/74/1 17/14/1
f 20/4/3 34/6/3 35/16/3
f 29/18/4 32/29/4 44/19/4
f 26/12/4 25/11/4 37/21/4
f 36/23/4 35/16/4 47/24/4
f 14/26/5 32/29/5 29/18/5
f 16/28/6 31/31/6 32/29/6
f 12/30/3 30/33/3 31/31/3
f 12/30/2 10/75/2 29/32/2
f 6/34/5 28/41/5 25/35/5
f 22/37/5 36/23/5 33/38/5
f 8/40/6 27/42/6 28/41/6
f 24/17/6 35/16/6 36/23/6
f 4/10/3 26/12/3 27/42/3
f 38/22/7 37/21/7 49/43/7
f 47/24/8 59/63/8 60/45/8
f 40/46/4 52/57/4 49/47/4
f 30/33/4 29/32/4 41/49/4
f 33/38/4 36/23/4 48/25/4
f 27/42/4 26/12/4 38/22/4
f 34/6/4 33/5/4 45/53/4
f 31/31/4 30/33/4 42/50/4
f 28/41/4 27/42/4 39/52/4
f 35/16/4 34/6/4 46/54/4
f 32/29/4 31/31/4 43/55/4
f 25/35/4 28/41/4 40/46/4
f 50/56/9 49/76/9 52/57/9
f 54/59/9 53/77/9 56/60/9
f 58/62/9 57/78/9 60/45/9
f 44/19/4 56/60/4 53/64/4
f 42/50/7 41/49/7 53/65/7
f 48/25/4 60/45/4 57/67/4
f 38/22/10 50/44/10 51/58/10
f 46/54/7 45/53/7 57/68/7
f 42/50/10 54/66/10 55/61/10
f 39/52/8 51/58/8 52/57/8
f 46/54/10 58/69/10 59/63/10
f 43/55/8 55/61/8 56/60/8
usemtl tronco
f 2/73/7 3/79/7 1/80/7
f 4/10/10 7/1/10 3/79/10
f 8/40/8 5/70/8 7/1/8
f 6/34/4 1/81/4 5/70/4
f 10/75/7 11/82/7 9/83/7
f 12/30/10 15/7/10 11/82/10
f 16/28/8 13/72/8 15/7/8
f 14/26/4 9/84/4 13/72/4
f 18/71/7 19/85/7 17/86/7
f 20/4/10 23/13/10 19/85/10
f 24/17/8 21/74/8 23/13/8
f 22/37/4 17/87/4 21/74/4
f 2/73/7 4/10/7 3/79/7
f 4/10/10 8/40/10 7/1/10
f 8/40/8 6/34/8 5/70/8
f 6/34/4 2/36/4 1/81/4
f 10/75/7 12/30/7 11/82/7
f 12/30/10 16/28/10 15/7/10
f 16/28/8 14/26/8 13/72/8
f 14/26/4 10/27/4 9/84/4
f 18/71/7 20/4/7 19/85/7
f 20/4/10 24/17/10 23/13/10
f 24/17/8 22/37/8 21/74/8
f 22/37/4 18/39/4 17/87/4
