# Blender v3.1.2 OBJ File: 'car.blend'
# www.blender.org
mtllib fontana.mtl
o Cubo.013_Cubo.014
v -5.022885 -0.480672 -16.655262
v -4.600071 -0.216674 -17.073759
v -5.022885 -0.480672 -24.357662
v -4.600071 -0.216674 -23.939165
v -2.703951 -0.480672 -16.655262
v -3.126766 -0.216674 -17.073759
v -2.703951 -0.480672 -24.357662
v -3.126766 -0.216674 -23.939165
v -5.022885 -0.216674 -16.655262
v -5.022885 -0.216674 -24.357662
v -2.703951 -0.216674 -24.357662
v -2.703951 -0.216674 -16.655262
v -4.600071 -0.533551 -17.073759
v -4.600071 -0.533551 -23.939165
v -3.126766 -0.533551 -23.939165
v -3.126766 -0.533551 -17.073759
v -4.600071 -0.440876 -17.073759
v -4.600071 -0.440876 -23.939165
v -3.126766 -0.440876 -23.939165
v -3.126766 -0.440876 -17.073759
vt 0.829417 0.513583
vt 0.670583 0.736417
vt 0.670583 0.513583
vt 0.829417 0.736417
vt 0.546121 0.860110
vt 0.276115 0.408843
vt 0.546121 0.408843
vt 0.914963 0.701115
vt 0.790734 0.408843
vt 0.914963 0.408843
vt 0.270006 0.860110
vt 0.000000 0.408843
vt 0.270006 0.408843
vt 0.790734 1.000000
vt 0.914963 0.707728
vt 0.790734 0.707728
vt 0.784624 0.457881
vt 0.660395 0.909148
vt 0.660395 0.457881
vt 0.000000 0.000000
vt 0.324088 0.402230
vt 0.000000 0.402230
vt 0.761973 0.024519
vt 0.784624 0.451267
vt 0.761973 0.426749
vt 0.660395 0.000000
vt 0.784624 0.000000
vt 0.683046 0.426749
vt 0.683046 0.024519
vt 0.660395 0.451267
vt 0.885517 0.000000
vt 0.790734 0.402230
vt 0.790734 0.000000
vt 0.330197 0.000000
vt 0.654285 0.402230
vt 0.330197 0.402230
vt 0.921072 0.759657
vt 1.000000 0.408843
vt 1.000000 0.759657
vt 0.891626 0.350814
vt 0.970554 0.000000
vt 0.970554 0.350814
vt 0.647014 0.811072
vt 0.552230 0.408843
vt 0.647014 0.408843
vt 0.078928 0.866723
vt 0.000000 0.969323
vt 0.000000 0.866723
vt 0.631158 0.817685
vt 0.552230 0.920286
vt 0.552230 0.817685
vt 0.276115 0.860110
vt 0.790734 0.701115
vt 0.000000 0.860110
vt 0.914963 1.000000
vt 0.784624 0.909148
vt 0.324088 0.000000
vt 0.885517 0.402230
vt 0.654285 0.000000
vt 0.921072 0.408843
vt 0.891627 0.000000
vt 0.552230 0.811072
vt 0.078928 0.969323
vt 0.631158 0.920286
vn 0.0000 1.0000 0.0000
vn -1.0000 0.0000 0.0000
vn 0.0000 0.0000 -1.0000
vn 1.0000 0.0000 0.0000
vn 0.0000 0.0000 1.0000
vn 0.0000 -1.0000 0.0000
usemtl Acqua
s off
f 18/1/1 20/2/1 19/3/1
f 18/1/1 17/4/1 20/2/1
usemtl fontana
f 1/5/2 10/6/2 3/7/2
f 10/8/3 7/9/3 3/10/3
f 7/11/4 12/12/4 5/13/4
f 12/14/5 1/15/5 5/16/5
f 7/17/6 1/18/6 3/19/6
f 8/20/2 16/21/2 6/22/2
f 4/23/1 9/24/1 2/25/1
f 4/23/1 11/26/1 10/27/1
f 6/28/1 11/26/1 8/29/1
f 6/28/1 9/24/1 12/30/1
f 16/31/4 19/32/4 20/33/4
f 2/34/4 14/35/4 4/36/4
f 6/37/3 13/38/3 2/39/3
f 4/40/5 15/41/5 8/42/5
f 13/43/2 18/44/2 14/45/2
f 16/46/5 17/47/5 13/48/5
f 14/49/3 19/50/3 15/51/3
f 1/5/2 9/52/2 10/6/2
f 10/8/3 11/53/3 7/9/3
f 7/11/4 11/54/4 12/12/4
f 12/14/5 9/55/5 1/15/5
f 7/17/6 5/56/6 1/18/6
f 8/20/2 15/57/2 16/21/2
f 4/23/1 10/27/1 9/24/1
f 4/23/1 8/29/1 11/26/1
f 6/28/1 12/30/1 11/26/1
f 6/28/1 2/25/1 9/24/1
f 16/31/4 15/58/4 19/32/4
f 2/34/4 13/59/4 14/35/4
f 6/37/3 16/60/3 13/38/3
f 4/40/5 14/61/5 15/41/5
f 13/43/2 17/62/2 18/44/2
f 16/46/5 20/63/5 17/47/5
f 14/49/3 18/64/3 19/50/3
