# Blender v3.1.2 OBJ File: 'car.blend'
# www.blender.org
mtllib ingresso.mtl
o Cubo.001
v -10.163645 -0.886171 -18.599422
v -10.163645 3.667020 -18.599422
v -10.163645 -0.886171 -19.055882
v -9.761715 -0.764713 -18.773214
v -10.163645 3.667020 -19.055882
v -9.761715 1.307970 -18.773214
v -7.420074 -0.886171 -18.599422
v -7.420074 3.667020 -18.599422
v -7.420074 -0.886171 -19.055882
v -7.806006 -0.764713 -18.773214
v -7.420074 3.667020 -19.055882
v -7.806006 1.307970 -18.773214
v -7.806006 1.307970 -18.599422
v -9.761715 -0.764713 -18.599422
v -9.761715 1.307970 -18.599422
v -7.806006 -0.764713 -18.599422
v -8.825277 -0.886171 -18.599422
v -8.825277 -0.886171 -19.055882
v -8.807681 -0.764713 -18.773214
v -8.825277 3.667020 -19.055882
v -8.807681 1.307970 -18.773214
v -8.807681 1.307970 -18.599422
v -8.825277 3.667020 -18.599422
v -8.807681 -0.764713 -18.599422
v -8.829981 -0.816824 -18.771498
v -8.829981 1.255859 -18.771498
v -8.829981 -0.640848 -18.665335
v -8.829981 1.431835 -18.665335
vt 0.375000 0.500000
vt 0.625000 0.371955
vt 0.375000 0.371955
vt 0.625000 0.250000
vt 0.375000 0.250000
vt 0.625000 0.500000
vt 0.625000 0.000000
vt 0.375000 0.250000
vt 0.375000 0.000000
vt 0.625000 0.371955
vt 0.375000 0.500000
vt 0.375000 0.371955
vt 0.625000 0.500000
vt 0.375000 0.750000
vt 0.495473 0.963375
vt 0.625000 0.878045
vt 0.625000 1.000000
vt 0.375000 0.878045
vt 0.381669 0.785167
vt 0.381669 0.876442
vt 0.246955 0.750000
vt 0.246955 0.500000
vt 0.875000 0.500000
vt 0.753045 0.750000
vt 0.753045 0.500000
vt 0.375000 0.212596
vt 0.625000 0.537404
vt 0.246955 0.500000
vt 0.125000 0.537404
vt 0.246955 0.537404
vt 0.753045 0.537404
vt 0.753045 0.500000
vt 0.875000 0.537404
vt 0.875000 0.500000
vt 0.375000 0.537404
vt 0.625000 0.750000
vt 0.125000 0.750000
vt 0.125000 0.500000
vt 0.381669 0.963375
vt 0.495473 0.876442
vt 0.495473 0.785167
vt 0.625000 0.250000
vt 0.625000 0.371955
vt 0.375000 0.371955
vt 0.625000 0.371955
vt 0.375000 1.000000
vt 0.875000 0.750000
vt 0.625000 0.212596
vt 0.125000 0.500000
vt 0.375000 0.371955
vn 0.0000 0.0000 1.0000
vn -1.0000 0.0000 0.0000
vn 0.0000 0.0000 -1.0000
vn 1.0000 0.0000 0.0000
vn 0.0000 -1.0000 0.0000
vn 0.0000 1.0000 0.0000
vn -0.0767 0.0000 -0.9971
usemtl vetrate
s off
f 10/1/1 21/2/1 19/3/1
f 19/3/1 6/4/1 4/5/1
f 10/1/1 12/6/1 21/2/1
f 19/3/1 21/2/1 6/4/1
usemtl intonaco2
f 2/7/2 3/8/2 1/9/2
f 20/10/3 9/11/3 18/12/3
f 11/13/4 7/14/4 9/11/4
f 15/15/1 23/16/1 2/17/1
f 17/18/1 16/19/1 24/20/1
f 9/11/5 17/21/5 18/22/5
f 5/23/6 23/24/6 20/25/6
f 6/4/4 14/26/4 4/5/4
f 10/1/2 13/27/2 12/6/2
f 19/28/6 14/29/6 24/30/6
f 12/6/5 22/31/5 21/32/5
f 21/32/5 15/33/5 6/34/5
f 10/1/6 24/30/6 16/35/6
f 20/25/6 8/36/6 11/13/6
f 18/22/5 1/37/5 3/38/5
f 14/39/1 17/18/1 24/20/1
f 23/16/1 22/40/1 13/41/1
f 5/42/3 18/12/3 3/8/3
f 19/3/7 26/43/7 21/2/7
f 26/43/2 27/44/2 28/45/2
f 2/7/2 5/42/2 3/8/2
f 20/10/3 11/13/3 9/11/3
f 11/13/4 8/36/4 7/14/4
f 15/15/1 22/40/1 23/16/1
f 2/17/1 1/46/1 15/15/1
f 1/46/1 14/39/1 15/15/1
f 17/18/1 7/14/1 16/19/1
f 9/11/5 7/14/5 17/21/5
f 5/23/6 2/47/6 23/24/6
f 6/4/4 15/48/4 14/26/4
f 10/1/2 16/35/2 13/27/2
f 19/28/6 4/49/6 14/29/6
f 12/6/5 13/27/5 22/31/5
f 21/32/5 22/31/5 15/33/5
f 10/1/6 19/28/6 24/30/6
f 20/25/6 23/24/6 8/36/6
f 18/22/5 17/21/5 1/37/5
f 14/39/1 1/46/1 17/18/1
f 16/19/1 7/14/1 13/41/1
f 7/14/1 8/36/1 13/41/1
f 8/36/1 23/16/1 13/41/1
f 5/42/3 20/10/3 18/12/3
f 19/3/7 25/50/7 26/43/7
f 26/43/2 25/50/2 27/44/2
