# Blender v3.1.2 OBJ File: 'car.blend'
# www.blender.org
mtllib muretto1.mtl
o Cubo.018
v -2.371024 -1.312204 -7.027631
v -2.371024 -0.964925 -7.027631
v -2.371024 -0.964925 -2.103940
v -2.371024 -1.312204 -2.103940
v -2.021024 -0.964925 -7.027631
v -2.021024 -1.312204 -7.027631
v -2.021024 -0.964925 -2.103940
v -2.021024 -1.312204 -2.103940
v -2.371024 0.405075 -2.103940
v -2.371024 0.405075 -7.027631
v -2.021024 0.405075 -2.103940
v -2.021024 0.405075 -7.027631
vt 0.375000 0.750000
vt 0.625000 0.750000
vt 0.625000 0.750000
vt 0.625000 0.750000
vt 0.375000 0.750000
vt 0.375000 0.750000
vt 0.625000 0.750000
vt 0.375000 0.750000
vt 0.625000 0.750000
vt 0.625000 0.750000
vt 0.625000 0.750000
vt 0.625000 0.750000
vn 0.0000 0.0000 1.0000
vn 1.0000 0.0000 0.0000
vn 0.0000 0.0000 -1.0000
vn 0.0000 -1.0000 0.0000
vn 0.0000 1.0000 0.0000
vn -1.0000 0.0000 0.0000
usemtl Materiale.003
s off
f 4/1/1 7/2/1 3/3/1
f 5/4/2 8/5/2 6/6/2
f 2/7/3 6/6/3 1/8/3
f 1/8/4 8/5/4 4/1/4
f 7/2/1 9/9/1 3/3/1
f 9/9/5 12/10/5 10/11/5
f 7/2/2 12/10/2 11/12/2
f 3/3/6 10/11/6 2/7/6
f 2/7/3 12/10/3 5/4/3
f 4/1/1 8/5/1 7/2/1
f 5/4/2 7/2/2 8/5/2
f 2/7/3 5/4/3 6/6/3
f 1/8/4 6/6/4 8/5/4
f 7/2/1 11/12/1 9/9/1
f 9/9/5 11/12/5 12/10/5
f 7/2/2 5/4/2 12/10/2
f 3/3/6 9/9/6 10/11/6
f 2/7/3 10/11/3 12/10/3
