# Blender v3.1.2 OBJ File: 'car.blend'
# www.blender.org
mtllib muretto2.mtl
o Cubo.017
v -20.934183 -1.312204 -2.103940
v -20.934183 -0.964925 -2.103940
v -2.371023 -0.964925 -2.103940
v -2.371023 -1.312204 -2.103940
v -20.934183 -1.312204 -1.753939
v -20.934183 -0.964925 -1.753939
v -2.371023 -0.964925 -1.753939
v -2.371023 -1.312204 -1.753939
v -2.371023 0.405075 -2.103939
v -20.934183 0.405075 -2.103939
v -2.371023 0.405075 -1.753939
v -20.934183 0.405075 -1.753939
v -11.652603 -1.312204 -2.103940
v -11.652603 -0.964925 -2.103940
v -11.652603 -1.312204 -1.753939
v -11.652603 -0.964925 -1.753939
v -11.652603 0.405075 -2.103939
v -11.652603 0.405075 -1.753939
vt 0.375000 0.750000
vt 0.250000 0.750000
vt 0.250000 0.750000
vt 0.625000 0.875000
vt 0.375000 1.000000
vt 0.375000 0.875000
vt 0.375000 0.000000
vt 0.625000 0.000000
vt 0.625000 0.000000
vt 0.875000 0.750000
vt 0.750000 0.750000
vt 0.750000 0.750000
vt 0.625000 0.750000
vt 0.375000 0.750000
vt 0.875000 0.750000
vt 0.750000 0.750000
vt 0.625000 0.750000
vt 0.625000 0.750000
vt 0.625000 0.875000
vt 0.625000 0.000000
vt 0.625000 1.000000
vt 0.625000 1.000000
vt 0.625000 0.750000
vt 0.125000 0.750000
vt 0.125000 0.750000
vt 0.375000 0.000000
vt 0.875000 0.750000
vt 0.625000 0.000000
vn 0.0000 -1.0000 0.0000
vn 0.0000 0.0000 1.0000
vn -1.0000 0.0000 0.0000
vn 0.0000 0.0000 -1.0000
vn 1.0000 0.0000 0.0000
vn 0.0000 1.0000 0.0000
usemtl Materiale.003
s off
f 4/1/1 15/2/1 13/3/1
f 16/4/2 5/5/2 15/6/2
f 1/7/3 6/8/3 2/9/3
f 2/10/4 17/11/4 14/12/4
f 3/13/5 8/14/5 4/1/5
f 10/15/6 18/16/6 17/11/6
f 3/13/5 11/17/5 7/18/5
f 7/18/2 18/19/2 16/4/2
f 6/8/3 10/20/3 2/9/3
f 16/4/2 12/21/2 6/22/2
f 17/11/6 11/17/6 9/23/6
f 14/12/4 9/23/4 3/13/4
f 7/18/2 15/6/2 8/14/2
f 13/3/1 5/24/1 1/25/1
f 4/1/1 8/14/1 15/2/1
f 16/4/2 6/22/2 5/5/2
f 1/7/3 5/26/3 6/8/3
f 2/10/4 10/15/4 17/11/4
f 3/13/5 7/18/5 8/14/5
f 10/15/6 12/27/6 18/16/6
f 3/13/5 9/23/5 11/17/5
f 7/18/2 11/17/2 18/19/2
f 6/8/3 12/28/3 10/20/3
f 16/4/2 18/19/2 12/21/2
f 17/11/6 18/16/6 11/17/6
f 14/12/4 17/11/4 9/23/4
f 7/18/2 16/4/2 15/6/2
f 13/3/1 15/2/1 5/24/1
