# Blender v3.1.2 OBJ File: 'car.blend'
# www.blender.org
mtllib shop.mtl
o Cubo
v -16.429550 -0.899668 -19.044350
v -6.800471 1.234310 -22.090252
v -14.383478 -0.771884 -19.215971
v -6.800471 1.234310 -24.239065
v -6.800471 1.754096 -22.090252
v -14.383478 1.299441 -19.215971
v -16.159353 2.483797 -19.314547
v -6.800471 1.234310 -23.780508
v -6.800471 1.754096 -24.239065
v -10.180270 -0.771884 -19.215971
v -10.180270 1.299441 -19.215971
v -6.585313 1.958323 -23.852421
v -16.429550 -0.899668 -26.314209
v -6.800471 1.234310 -25.929319
v -16.159353 2.483797 -26.044012
v -6.800471 1.754096 -25.929319
v -5.657113 -0.899668 -19.044350
v -5.927310 2.483797 -19.314547
v -5.657113 -0.899668 -26.314209
v -5.927310 2.483797 -26.044012
v -16.429550 2.483797 -19.044350
v -16.429550 2.483797 -26.314209
v -5.657113 2.483797 -26.314209
v -5.657113 2.483797 -19.044350
v -16.159353 2.322006 -19.314547
v -16.159353 2.322006 -26.044012
v -5.927310 2.322006 -26.044012
v -5.927310 2.322006 -19.314547
v -5.657113 1.754096 -24.239065
v -5.657113 1.234310 -24.239065
v -5.657113 1.234310 -25.929319
v -5.657113 1.754096 -25.929319
v -5.657113 1.234310 -22.090252
v -5.657113 1.234310 -23.780508
v -5.657113 1.754096 -22.090252
v -10.180270 1.299441 -19.044350
v -14.413961 -0.785827 -19.047012
v -14.383478 1.299441 -19.044350
v -10.180270 -0.771884 -19.044350
v -11.231072 1.299441 -19.044350
v -12.281874 1.299441 -19.044350
v -13.332676 1.299441 -19.044350
v -13.332676 -0.771884 -19.215971
v -12.281874 -0.771884 -19.215971
v -11.231072 -0.771884 -19.215971
v -13.424217 1.207900 -19.215971
v -12.363984 1.217331 -19.215971
v -11.298503 1.232010 -19.215971
v -14.291938 -0.680343 -19.215971
v -14.291938 1.207900 -19.215971
v -13.424217 -0.680343 -19.215971
v -13.250566 1.217331 -19.215971
v -13.250566 -0.689774 -19.215971
v -12.363984 -0.689774 -19.215971
v -13.332676 1.299441 -19.215971
v -12.214443 1.232010 -19.215971
v -12.214443 -0.704453 -19.215971
v -12.281874 1.299441 -19.215971
v -11.298503 -0.704453 -19.215971
v -11.173940 1.242308 -19.215971
v -10.237403 -0.714751 -19.215971
v -11.173940 -0.714751 -19.215971
v -10.237403 1.242308 -19.215971
v -11.231072 1.299441 -19.215971
v -14.291938 -0.680343 -19.343531
v -14.291938 1.207900 -19.343531
v -10.237403 -0.714751 -19.343531
v -10.237403 1.242308 -19.343531
v -11.173940 -0.714751 -19.343531
v -13.424217 -0.680343 -19.343531
v -13.250566 -0.689774 -19.343531
v -12.363984 -0.689774 -19.343531
v -12.214443 -0.704453 -19.343531
v -11.298503 -0.704453 -19.343531
v -13.424217 1.207900 -19.343531
v -13.250566 1.217331 -19.343531
v -12.363984 1.217331 -19.343531
v -12.214443 1.232010 -19.343531
v -11.298503 1.232010 -19.343531
v -11.173940 1.242308 -19.343531
v -6.332206 1.570081 -23.866739
v -6.500739 1.640508 -23.838278
v -5.847456 1.743253 -23.805416
v -5.732665 1.709675 -23.808447
v -6.210310 1.228330 -23.709606
v -6.210310 1.757753 -23.709606
v -6.210310 1.228330 -24.347525
v -6.210310 1.757753 -24.347525
v -5.655924 1.228330 -23.709606
v -5.655924 1.757753 -23.709606
v -5.655924 1.228330 -24.347525
v -5.655924 1.757753 -24.347525
vt 0.625000 0.000000
vt 0.375000 0.250000
vt 0.375000 0.000000
vt 0.375000 0.500000
vt 0.125000 0.750000
vt 0.125000 0.500000
vt 0.868729 0.514712
vt 0.631271 0.735288
vt 0.631271 0.514712
vt 0.631271 0.735288
vt 0.868729 0.735288
vt 0.868729 0.735288
vt 0.868729 0.514712
vt 0.631271 0.514712
vt 0.375000 0.000000
vt 0.625000 0.250000
vt 0.625000 0.000000
vt 0.375000 0.399456
vt 0.625000 0.399456
vt 0.125000 0.750000
vt 0.274456 0.500000
vt 0.125000 0.500000
vt 0.875000 0.500000
vt 0.725544 0.750000
vt 0.875000 0.750000
vt 0.375000 0.250000
vt 0.625000 0.000000
vt 0.375000 0.000000
vt 0.375000 1.000000
vt 0.625000 0.850544
vt 0.375000 0.850544
vt 0.125000 0.750000
vt 0.274456 0.500000
vt 0.125000 0.500000
vt 0.616861 0.379011
vt 0.616861 0.433489
vt 0.616861 0.433489
vt 0.625000 0.500000
vt 0.687500 0.560323
vt 0.687500 0.500000
vt 0.875000 0.750000
vt 0.875000 0.500000
vt 0.725544 0.750000
vt 0.625000 0.250000
vt 0.375000 0.399456
vt 0.625000 0.250000
vt 0.375000 0.500000
vt 0.375000 0.250000
vt 0.812500 0.500000
vt 0.875000 0.560323
vt 0.875000 0.500000
vt 0.750000 0.500000
vt 0.812500 0.560323
vt 0.750000 0.560323
vt 0.613951 0.255445
vt 0.613951 0.307055
vt 0.613951 0.307055
vt 0.615090 0.317384
vt 0.615090 0.370116
vt 0.615090 0.370116
vt 0.386049 0.255445
vt 0.375000 0.312500
vt 0.386049 0.307055
vt 0.625000 0.250000
vt 0.384910 0.317384
vt 0.375000 0.375000
vt 0.384910 0.370116
vt 0.625000 0.312500
vt 0.383139 0.379011
vt 0.375000 0.437500
vt 0.383139 0.433489
vt 0.625000 0.375000
vt 0.381896 0.440898
vt 0.375000 0.500000
vt 0.381896 0.496602
vt 0.618104 0.496602
vt 0.625000 0.437500
vt 0.618104 0.440898
vt 0.386049 0.255445
vt 0.386049 0.307055
vt 0.618104 0.496602
vt 0.384910 0.317384
vt 0.381896 0.440898
vt 0.383139 0.379011
vt 0.571083 0.571361
vt 0.625000 0.250000
vt 0.532677 0.587130
vt 0.625000 0.750000
vt 0.375000 1.000000
vt 0.375000 0.750000
vt 0.125000 0.750000
vt 0.125000 0.500000
vt 0.875000 0.500000
vt 0.625000 0.750000
vt 0.625000 0.500000
vt 0.625000 0.250000
vt 0.375000 0.750000
vt 0.375000 0.250000
vt 0.274456 0.750000
vt 0.725544 0.500000
vt 0.625000 1.000000
vt 0.274456 0.750000
vt 0.616861 0.379011
vt 0.625000 0.560323
vt 0.613951 0.255445
vt 0.615090 0.317384
vt 0.375000 0.250000
vt 0.618104 0.440898
vt 0.384910 0.370116
vt 0.381896 0.496602
vt 0.383139 0.433489
vt 0.725544 0.750000
vt 0.625000 1.000000
vt 0.375000 0.750000
vt 0.875000 0.750000
vt 0.625000 0.000000
vt 0.375000 0.250000
vt 0.375000 0.000000
vt 0.625000 0.250000
vt 0.625000 0.500000
vt 0.532677 0.513236
vt 0.625000 0.750000
vt 0.537489 0.854971
vt 0.875000 0.750000
vt 0.875000 0.500000
vt 0.532677 0.645256
vt 0.571083 0.645256
vt 0.625000 1.000000
vt 0.537489 0.952516
vt 0.571083 0.513236
vt 0.384442 0.854971
vt 0.384442 0.952516
vt 0.375000 1.000000
vt 0.537489 0.879357
vt 0.537489 0.928130
vt 0.537489 0.903743
vt 0.571083 0.571361
vt 0.532677 0.571361
vt 0.532677 0.587130
vn 0.0000 0.0000 1.0000
vn 0.0000 -1.0000 0.0000
vn 0.0000 1.0000 -0.0000
vn 0.0000 0.0000 -1.0000
vn -1.0000 0.0000 0.0000
vn 1.0000 0.0000 0.0000
vn 0.0000 -0.9934 -0.1151
vn 0.0000 0.0988 0.9951
vn 0.0413 0.2289 -0.9726
vn 0.9574 -0.2761 0.0849
vn -0.0019 -0.3785 0.9256
vn 0.0001 0.0000 1.0000
vn -0.0007 0.0366 0.9993
vn -0.0001 0.0000 1.0000
vn 0.0014 -0.0013 1.0000
vn 0.9842 -0.0146 0.1764
usemtl Tetto1
s off
f 90/1/1 85/2/1 89/3/1
f 19/4/2 1/5/2 13/6/2
f 26/7/3 28/8/3 27/9/3
f 18/10/4 25/11/4 7/12/4
f 15/13/1 27/9/1 20/14/1
f 20/14/5 28/8/5 18/10/5
f 7/12/6 26/7/6 15/13/6
f 4/15/6 16/16/6 9/17/6
f 16/16/1 31/18/1 32/19/1
f 4/20/3 31/21/3 14/22/3
f 16/23/2 29/24/2 9/25/2
f 8/26/6 5/27/6 2/28/6
f 2/29/4 35/30/4 33/31/4
f 2/32/3 34/33/3 8/34/3
f 56/35/2 79/36/2 48/37/2
f 11/38/2 40/39/2 64/40/2
f 5/41/7 12/42/7 35/43/7
f 12/44/8 8/26/8 34/45/8
f 88/46/4 91/47/4 87/48/4
f 55/49/2 38/50/2 6/51/2
f 58/52/2 42/53/2 55/49/2
f 64/40/2 41/54/2 58/52/2
f 50/55/2 75/56/2 46/57/2
f 52/58/2 77/59/2 47/60/2
f 49/61/1 43/62/1 51/63/1
f 46/57/1 6/64/1 50/55/1
f 53/65/1 44/66/1 54/67/1
f 47/60/1 55/68/1 52/58/1
f 57/69/1 45/70/1 59/71/1
f 48/37/1 58/72/1 56/35/1
f 62/73/1 10/74/1 61/75/1
f 63/76/1 64/77/1 60/78/1
f 51/63/3 65/79/3 49/61/3
f 46/57/5 70/80/5 51/63/5
f 60/78/2 68/81/2 63/76/2
f 54/67/3 71/82/3 53/65/3
f 61/75/3 69/83/3 62/73/3
f 59/71/3 73/84/3 57/69/3
f 84/85/9 81/86/9 83/87/9
f 86/88/5 87/89/5 85/90/5
f 91/47/2 85/91/2 87/92/2
f 88/93/3 90/94/3 92/95/3
f 90/1/1 86/96/1 85/2/1
f 19/4/2 17/97/2 1/5/2
f 26/7/3 25/11/3 28/8/3
f 18/10/4 28/8/4 25/11/4
f 15/13/1 26/7/1 27/9/1
f 20/14/5 27/9/5 28/8/5
f 7/12/6 25/11/6 26/7/6
f 4/15/6 14/98/6 16/16/6
f 16/16/1 14/98/1 31/18/1
f 4/20/3 30/99/3 31/21/3
f 16/23/2 32/100/2 29/24/2
f 8/26/10 12/44/10 5/27/10
f 2/29/4 5/101/4 35/30/4
f 2/32/3 33/102/3 34/33/3
f 56/35/2 78/103/2 79/36/2
f 11/38/2 36/104/2 40/39/2
f 88/46/4 92/95/4 91/47/4
f 55/49/2 42/53/2 38/50/2
f 58/52/2 41/54/2 42/53/2
f 64/40/2 40/39/2 41/54/2
f 50/55/2 66/105/2 75/56/2
f 52/58/2 76/106/2 77/59/2
f 49/61/1 3/107/1 43/62/1
f 46/57/1 55/68/1 6/64/1
f 53/65/1 43/62/1 44/66/1
f 47/60/1 58/72/1 55/68/1
f 57/69/1 44/66/1 45/70/1
f 48/37/1 64/77/1 58/72/1
f 62/73/1 45/70/1 10/74/1
f 63/76/1 11/38/1 64/77/1
f 51/63/3 70/80/3 65/79/3
f 46/57/5 75/56/5 70/80/5
f 60/78/2 80/108/2 68/81/2
f 54/67/3 72/109/3 71/82/3
f 61/75/3 67/110/3 69/83/3
f 59/71/3 74/111/3 73/84/3
f 84/85/11 82/112/11 81/86/11
f 86/88/5 88/113/5 87/89/5
f 91/47/2 89/114/2 85/91/2
f 88/93/3 86/115/3 90/94/3
usemtl intonaco1
f 21/116/5 13/117/5 1/118/5
f 22/119/4 19/4/4 13/117/4
f 23/120/6 31/121/6 19/4/6
f 17/97/1 24/122/1 36/123/1
f 15/13/3 21/124/3 7/12/3
f 20/14/3 22/125/3 15/13/3
f 18/10/3 23/120/3 20/14/3
f 7/12/3 24/122/3 18/10/3
f 24/122/6 33/126/6 35/127/6
f 49/61/6 66/105/6 50/55/6
f 50/55/1 3/107/1 49/61/1
f 51/63/1 55/68/1 46/57/1
f 52/58/1 43/62/1 53/65/1
f 54/67/1 58/72/1 47/60/1
f 57/69/12 58/72/12 44/66/12
f 59/71/1 64/77/1 48/37/1
f 61/75/1 11/38/1 63/76/1
f 60/78/1 45/70/1 62/73/1
f 53/65/6 76/106/6 52/58/6
f 57/69/6 78/103/6 56/35/6
f 47/60/5 72/109/5 54/67/5
f 48/37/5 74/111/5 59/71/5
f 62/73/6 80/108/6 60/78/6
f 63/76/5 67/110/5 61/75/5
f 92/95/6 89/114/6 91/47/6
f 21/128/1 1/118/1 38/129/1
f 3/107/6 6/64/6 38/50/6
f 21/116/5 22/119/5 13/117/5
f 22/119/4 23/120/4 19/4/4
f 23/120/6 32/130/6 31/121/6
f 39/131/13 37/132/13 1/133/13
f 24/122/1 21/128/1 40/134/1
f 21/128/1 38/129/1 42/135/1
f 42/135/1 41/136/1 21/128/1
f 41/136/1 40/134/1 21/128/1
f 24/122/1 40/134/1 36/123/1
f 39/131/1 1/133/1 17/97/1
f 36/123/1 39/131/1 17/97/1
f 15/13/3 22/125/3 21/124/3
f 20/14/3 23/120/3 22/125/3
f 18/10/3 24/122/3 23/120/3
f 7/12/3 21/124/3 24/122/3
f 29/137/6 32/130/6 23/120/6
f 24/122/6 17/97/6 33/126/6
f 17/97/6 19/4/6 33/126/6
f 19/4/6 31/121/6 30/138/6
f 30/138/6 34/139/6 19/4/6
f 34/139/6 33/126/6 19/4/6
f 35/127/6 29/137/6 23/120/6
f 35/127/6 23/120/6 24/122/6
f 49/61/6 65/79/6 66/105/6
f 50/55/1 6/64/1 3/107/1
f 51/63/1 43/62/1 55/68/1
f 52/58/1 55/68/1 43/62/1
f 54/67/1 44/66/1 58/72/1
f 57/69/1 56/35/1 58/72/1
f 59/71/14 45/70/14 64/77/14
f 61/75/14 10/74/14 11/38/14
f 60/78/12 64/77/12 45/70/12
f 53/65/6 71/82/6 76/106/6
f 57/69/6 73/84/6 78/103/6
f 47/60/5 77/59/5 72/109/5
f 48/37/5 79/36/5 74/111/5
f 62/73/6 69/83/6 80/108/6
f 63/76/5 68/81/5 67/110/5
f 92/95/6 90/94/6 89/114/6
f 38/50/1 21/116/1 1/118/1
f 1/118/15 37/132/15 38/50/15
f 37/132/16 3/107/16 38/50/16
usemtl vetrate
f 67/110/1 80/108/1 69/83/1
f 70/80/1 66/105/1 65/79/1
f 72/109/1 76/106/1 71/82/1
f 74/111/1 78/103/1 73/84/1
f 67/110/1 68/81/1 80/108/1
f 70/80/1 75/56/1 66/105/1
f 72/109/1 77/59/1 76/106/1
f 74/111/1 79/36/1 78/103/1
