# Blender v3.1.2 OBJ File: 'car.blend'
# www.blender.org
mtllib stradaParcheggio.mtl
o Cubo.016
v -20.934183 -1.312204 -7.027631
v -20.934183 -0.964925 -7.027631
v -20.934183 -1.312204 -12.589210
v -20.934183 -0.964925 -12.589210
v -2.371024 -1.312204 -7.027631
v -2.371024 -0.964925 -7.027631
v -2.371024 -1.312204 -12.589210
v -2.371024 -0.964925 -12.589210
v -20.934183 -1.312204 -2.103940
v -20.934183 -0.964925 -2.103940
v -2.371024 -0.964925 -2.103940
v -2.371024 -1.312204 -2.103940
v -21.284184 -1.312204 -7.027631
v -21.284184 -0.964925 -7.027631
v -21.284184 -1.312204 -2.103940
v -21.284184 -0.964925 -2.103940
v -20.934183 0.405075 -2.103940
v -20.934183 0.405075 -7.027631
v -21.284184 0.405075 -2.103940
v -21.284184 0.405075 -7.027631
v 2.789013 -0.964925 -12.589210
v 2.789013 -1.312204 -12.589210
v 2.789013 -1.312204 -7.027631
v 2.789013 -0.964925 -7.027631
v -2.371024 -0.964925 4.081390
v -2.371024 -1.312204 4.081390
v 2.789013 -0.964925 4.081390
v 2.789013 -1.312204 4.081390
v -2.371024 -0.964925 -29.085724
v -2.371024 -1.312204 -29.085724
v 2.789013 -0.964925 -29.085724
v 2.789013 -1.312204 -29.085724
v -11.652604 -1.312204 -12.589210
v -11.652604 -0.964925 -12.589210
v -11.652604 -1.312204 -2.103940
v -11.652604 -0.964925 -2.103940
v -11.652604 -0.964925 -7.027631
vt 0.625000 0.000000
vt 0.375000 0.250000
vt 0.375000 0.000000
vt 0.625000 0.375000
vt 0.375000 0.500000
vt 0.375000 0.375000
vt 0.625000 0.000000
vt 0.250000 0.500000
vt 0.375000 0.750000
vt 0.125000 0.750000
vt 0.375000 0.000000
vt 0.625000 0.000000
vt 0.625000 0.000000
vt 0.375000 0.000000
vt 0.375000 0.000000
vt 0.875000 0.750000
vt 0.875000 0.750000
vt 0.875000 0.750000
vt 0.125000 0.750000
vt 0.125000 0.750000
vt 0.875000 0.750000
vt 0.875000 0.750000
vt 0.625000 0.000000
vt 0.625000 0.000000
vt 0.625000 0.000000
vt 0.625000 0.500000
vt 0.375000 0.750000
vt 0.375000 0.500000
vt 0.375000 0.500000
vt 0.375000 0.750000
vt 0.625000 0.750000
vt 0.625000 0.750000
vt 0.625000 0.750000
vt 0.625000 0.750000
vt 0.375000 0.750000
vt 0.625000 0.500000
vt 0.375000 0.500000
vt 0.625000 0.500000
vt 0.625000 0.500000
vt 0.625000 0.250000
vt 0.375000 0.750000
vt 0.250000 0.750000
vt 0.125000 0.500000
vt 0.125000 0.750000
vt 0.875000 0.750000
vt 0.625000 0.000000
vt 0.504725 0.243893
vt 0.999984 0.852001
vt 0.504725 0.852001
vt 0.009466 0.852001
vt 0.009466 0.243894
vt 0.999984 0.243893
vt 0.782501 0.061259
vt 0.418283 0.938741
vt 0.418283 0.061259
vt 0.494660 0.065964
vt 0.991914 0.934036
vt 0.494660 0.934036
vt 0.464175 0.061259
vt 0.973463 0.938741
vt 0.464175 0.938741
vt 0.779902 0.938741
vt -0.009614 0.061259
vt 0.779902 0.061259
vt 0.782501 0.938741
vt -0.002595 0.934036
vt -0.002595 0.065964
vt 0.991914 0.065964
vt 0.973463 0.061259
vt -0.009614 0.938741
vn -1.0000 0.0000 0.0000
vn 0.0000 0.0000 -1.0000
vn 0.0000 -1.0000 -0.0000
vn 0.0000 0.0000 1.0000
vn 1.0000 0.0000 0.0000
vn 0.0000 1.0000 0.0000
usemtl Materiale.003
s off
f 2/1/1 3/2/1 1/3/1
f 34/4/2 7/5/2 33/6/2
f 1/3/2 14/7/2 2/1/2
f 33/8/3 5/9/3 1/10/3
f 13/11/1 16/12/1 14/7/1
f 10/13/4 15/14/4 9/15/4
f 2/16/5 17/17/5 10/18/5
f 9/19/3 13/20/3 1/10/3
f 18/21/6 19/22/6 17/17/6
f 16/12/1 20/23/1 14/7/1
f 10/13/4 19/24/4 16/12/4
f 14/7/2 18/25/2 2/1/2
f 21/26/5 23/27/5 22/28/5
f 7/5/3 32/29/3 22/28/3
f 7/5/3 23/27/3 5/9/3
f 26/30/4 27/31/4 25/32/4
f 5/9/1 25/32/1 6/33/1
f 23/27/3 26/30/3 5/9/3
f 24/34/5 28/35/5 23/27/5
f 29/36/2 32/29/2 30/37/2
f 8/38/1 30/37/1 7/5/1
f 22/28/5 31/39/5 21/26/5
f 4/40/2 33/6/2 3/2/2
f 5/9/3 12/41/3 35/42/3
f 2/1/1 4/40/1 3/2/1
f 34/4/2 8/38/2 7/5/2
f 1/3/2 13/11/2 14/7/2
f 1/10/3 3/43/3 33/8/3
f 33/8/3 7/5/3 5/9/3
f 13/11/1 15/14/1 16/12/1
f 10/13/4 16/12/4 15/14/4
f 2/16/5 18/21/5 17/17/5
f 9/19/3 15/44/3 13/20/3
f 18/21/6 20/45/6 19/22/6
f 16/12/1 19/24/1 20/23/1
f 10/13/4 17/46/4 19/24/4
f 14/7/2 20/23/2 18/25/2
f 21/26/5 24/34/5 23/27/5
f 7/5/3 30/37/3 32/29/3
f 7/5/3 22/28/3 23/27/3
f 26/30/4 28/35/4 27/31/4
f 5/9/1 26/30/1 25/32/1
f 23/27/3 28/35/3 26/30/3
f 24/34/5 27/31/5 28/35/5
f 29/36/2 31/39/2 32/29/2
f 8/38/1 29/36/1 30/37/1
f 22/28/5 32/29/5 31/39/5
f 4/40/2 34/4/2 33/6/2
f 9/19/3 1/10/3 35/42/3
f 1/10/3 5/9/3 35/42/3
usemtl parking
f 37/47/6 10/48/6 36/49/6
f 11/50/6 6/51/6 37/47/6
f 37/47/6 2/52/6 10/48/6
f 36/49/6 11/50/6 37/47/6
usemtl strisceped
f 6/53/6 21/54/6 8/55/6
f 34/56/6 2/57/6 37/58/6
f 6/59/6 27/60/6 24/61/6
f 21/62/6 29/63/6 8/64/6
f 6/53/6 24/65/6 21/54/6
f 6/66/6 8/67/6 34/56/6
f 34/56/6 4/68/6 2/57/6
f 37/58/6 6/66/6 34/56/6
f 6/59/6 25/69/6 27/60/6
f 21/62/6 31/70/6 29/63/6
